<svg xmlns="http://www.w3.org/2000/svg" xmlns:xlink="http://www.w3.org/1999/xlink" width="87" zoomAndPan="magnify" viewBox="0 0 65.25 83.999999" height="112" preserveAspectRatio="xMidYMid meet" version="1.0"><defs><clipPath id="8971ca7934"><path d="M 2 3.320312 L 57 3.320312 L 57 77 L 2 77 Z M 2 3.320312 " clip-rule="nonzero"/></clipPath><clipPath id="adce34d116"><path d="M 2 0.476562 L 57 0.476562 L 57 74 L 2 74 Z M 2 0.476562 " clip-rule="nonzero"/></clipPath></defs><g clip-path="url(#8971ca7934)"><path fill="#efbf04" d="M 25.851562 55.917969 C 9.816406 46.746094 -0.00390625 56.167969 2.550781 68.027344 C 4.195312 75.636719 18.394531 82.710938 30.191406 69.039062 C 31.90625 54.269531 34.160156 39.429688 35.875 24.660156 C 54.003906 40.644531 48.214844 50.316406 44.46875 61.453125 C 52.171875 58.277344 64.246094 44.257812 51.054688 24.480469 C 44.816406 15.71875 45.402344 21.90625 39.355469 4.429688 L 32.964844 3.375 C 30.421875 21.382812 28.390625 37.914062 25.851562 55.921875 Z M 25.851562 55.917969 " fill-opacity="1" fill-rule="nonzero"/></g><g clip-path="url(#adce34d116)"><path fill="#efbf04" d="M 25.851562 53.078125 C 9.816406 43.902344 -0.00390625 53.324219 2.550781 65.183594 C 4.195312 72.796875 18.394531 79.867188 30.191406 66.199219 C 31.90625 51.429688 34.160156 36.589844 35.875 21.820312 C 54.003906 37.804688 48.214844 47.476562 44.46875 58.609375 C 52.171875 55.433594 64.246094 41.414062 51.054688 21.636719 C 44.816406 12.878906 45.402344 19.0625 39.355469 1.589844 L 32.964844 0.53125 C 30.421875 18.542969 28.390625 35.070312 25.851562 53.078125 Z M 25.851562 53.078125 " fill-opacity="1" fill-rule="nonzero"/></g></svg>